<?xml version="1.0" encoding="UTF-8" standalone="no"?>
<svg
   height="21.040403"
   viewBox="0 -960 843.68721 841.61613"
   width="21.09218"
   fill="#1f1f1f"
   version="1.1"
   id="svg28"
   xml:space="preserve"
   xmlns:xlink="http://www.w3.org/1999/xlink"
   xmlns="http://www.w3.org/2000/svg"
   xmlns:svg="http://www.w3.org/2000/svg"><defs
     id="defs32"><linearGradient
       id="linearGradient1939"><stop
         offset="0"
         id="stop1937" /></linearGradient><pattern
       xlink:href="#pattern949"
       id="pattern1935"
       patternTransform="matrix(40,0,0,40,522.34835,-436.91942)" /><pattern
       patternUnits="userSpaceOnUse"
       width="10.9375"
       height="10.9375"
       patternTransform="translate(13.125,13.1875)"
       id="pattern949"><g
         id="g279"
         transform="matrix(0.01367188,0,0,0.01367188,-1.09375,12.03125)"><path
           d="m 336,-280 144,-144 144,144 56,-56 -144,-144 144,-144 -56,-56 -144,144 -144,-144 -56,56 144,144 -144,144 z M 480,-80 Q 397,-80 324,-111.5 251,-143 197,-197 143,-251 111.5,-324 80,-397 80,-480 q 0,-83 31.5,-156 31.5,-73 85.5,-127 54,-54 127,-85.5 73,-31.5 156,-31.5 83,0 156,31.5 73,31.5 127,85.5 54,54 85.5,127 31.5,73 31.5,156 0,83 -31.5,156 -31.5,73 -85.5,127 -54,54 -127,85.5 Q 563,-80 480,-80 Z m 0,-80 q 134,0 227,-93 93,-93 93,-227 0,-134 -93,-227 -93,-93 -227,-93 -134,0 -227,93 -93,93 -93,227 0,134 93,227 93,93 227,93 z m 0,-320 z"
           id="path270" /></g></pattern></defs><path
     d="m 200,-400 q 17,0 28.5,-11.5 Q 240,-423 240,-440 240,-457 228.5,-468.5 217,-480 200,-480 q -17,0 -28.5,11.5 -11.5,11.5 -11.5,28.5 0,17 11.5,28.5 11.5,11.5 28.5,11.5 z m 0,-160 q 17,0 28.5,-11.5 Q 240,-583 240,-600 240,-617 228.5,-628.5 217,-640 200,-640 q -17,0 -28.5,11.5 -11.5,11.5 -11.5,28.5 0,17 11.5,28.5 11.5,11.5 28.5,11.5 z m 0,-160 q 17,0 28.5,-11.5 Q 240,-743 240,-760 240,-777 228.5,-788.5 217,-800 200,-800 q -17,0 -28.5,11.5 -11.5,11.5 -11.5,28.5 0,17 11.5,28.5 11.5,11.5 28.5,11.5 z m 120,320 h 240 v -80 H 320 Z m 0,-160 h 240 v -80 H 320 Z m 0,-160 h 240 v -80 H 320 Z M 80,-240 Q 47,-240 23.5,-263.5 0,-287 0,-320 V -880 Q 0,-913 23.5,-936.5 47,-960 80,-960 h 560 q 33,0 56.5,23.5 23.5,23.5 23.5,56.5 v 560 q 0,33 -23.5,56.5 Q 673,-240 640,-240 Z m 0,-80 H 640 V -880 H 80 Z m 0,-560 v 560 z"
     id="path26" /><g
     id="layer1"
     transform="translate(-120,-120)"><circle

       id="path943"
       cx="746.70496"
       cy="-215.36612"
       r="216.98224" /><rect
       width="437.5"
       height="437.5"
       x="522.34833"
       y="-436.9194"
       id="rect953" /></g></svg>
